<svg xmlns="http://www.w3.org/2000/svg" viewBox="0 0 700 420"><rect width="700" height="420" fill="#18232b"/><circle cx="560" cy="95" r="150" fill="#263e4b"/><path d="M185 305c-19-42-5-83 31-112l10-116c2-18 29-18 31 1l5 78 14-126c2-20 31-18 31 3l1 119 16-133c3-18 30-16 30 4l-1 137 18-100c4-18 30-13 28 7l-8 134c-3 57-35 92-88 111z" fill="#f05b43"/><path d="M195 274h172" stroke="#ffb08d" stroke-width="18"/><text x="34" y="380" fill="#fff" font-family="Arial" font-size="30" font-weight="bold">GUANTES CICLISTAS</text></svg>
